<svg xmlns="http://www.w3.org/2000/svg" width="94.488" height="94.488" viewBox="0 0 25 25"  xmlns:v="https://vecta.io/nano"><g fill="none" stroke="#000"><path d="M11.446 13.378l-4.908 4.91m0 4.156l4.927-5.321-.019-3.745H7.278l-4.894 4.91h4.154z" stroke-width=".89"/><rect width="24.022" height="24.022" x=".489" y=".489" rx="2" stroke-width=".978" stroke-linejoin="round" stroke-miterlimit="3.86369991"/><path d="M11.488 11.658L6.58 6.748m0-4.156l4.927 5.321-.019 3.745H7.32l-4.894-4.91H6.58zm11.656 19.852l-4.927-5.321.019-3.745h4.168l4.894 4.91h-4.154zm-4.95-10.786l4.908-4.91m0-4.156l-4.927 5.321.019 3.745h4.168l4.894-4.91h-4.154z" stroke-width=".89"/></g><path d="M14.537 14.208l.546.547h3.738l-.545-.547h-3.74m1.212 1.284l.546.547h3.738l-.545-.547h-3.74m1.27 1.257l.546.547h3.738l-.545-.547h-3.74m-6.897 6.443h-.445v-1.676q-.244.228-.574.337v-.403q.174-.057.378-.215.204-.16.28-.372h.361zm.676-.536l.43-.048q.016.131.082.195.066.063.176.063.138 0 .234-.127.097-.127.123-.525-.168.195-.419.195-.274 0-.473-.21-.198-.212-.198-.551 0-.353.209-.568.21-.217.535-.217.353 0 .579.274.226.272.226.897 0 .636-.236.918-.236.282-.614.282-.272 0-.44-.144-.168-.146-.215-.434zm1.006-.972q0-.215-.1-.334-.098-.119-.228-.119-.123 0-.206.098-.081.096-.081.318 0 .225.089.331.089.104.222.104.128 0 .215-.101.089-.101.089-.297z"/><path d="M12.589 21.317v-.413h1.521v.323q-.188.185-.383.532-.195.347-.297.737-.101.389-.1.696h-.429q.011-.481.198-.981.188-.5.502-.894zm2.555-.454q.337 0 .527.24.226.285.226.945 0 .658-.228.946-.188.237-.525.237-.339 0-.546-.259-.207-.261-.207-.929 0-.655.228-.943.188-.237.525-.237zm0 .369q-.081 0-.144.052-.063.051-.098.184-.046.172-.046.581 0 .408.041.562.041.152.103.203.063.051.144.051.081 0 .144-.051.063-.052.098-.185.046-.171.046-.579 0-.408-.041-.56-.041-.153-.104-.204-.062-.052-.142-.052z"/></svg>